HIERARCHY
ROOT hip
{
  OFFSET 0 0 0
  CHANNELS 6 Xposition Yposition Zposition Zrotation Yrotation Xrotation
  JOINT abdomen
  {
    OFFSET 0 20.6881 -0.73152
    CHANNELS 3 Zrotation Xrotation Yrotation
    JOINT chest
    {
      OFFSET 0 11.7043 -0.48768
      CHANNELS 3 Zrotation Xrotation Yrotation
      JOINT neck
      {
        OFFSET 0 22.1894 -2.19456
        CHANNELS 3 Zrotation Xrotation Yrotation
        JOINT head
        {
          OFFSET -0.24384 7.07133 1.2192
          CHANNELS 3 Zrotation Xrotation Yrotation
          JOINT leftEye
          {
            OFFSET 4.14528 8.04674 8.04672
            CHANNELS 3 Zrotation Xrotation Yrotation
            End Site
            {
              OFFSET 1 0 0
            }
          }
          JOINT rightEye
          {
            OFFSET -3.6576 8.04674 8.04672
            CHANNELS 3 Zrotation Xrotation Yrotation
            End Site
            {
              OFFSET 1 0 0
            }
          }
        }
      }
      JOINT rCollar
      {
        OFFSET -2.68224 19.2634 -4.8768
        CHANNELS 3 Zrotation Xrotation Yrotation
        JOINT rShldr
        {
          OFFSET -8.77824 -1.95073 1.46304
          CHANNELS 3 Zrotation Xrotation Yrotation
          JOINT rForeArm
          {
            OFFSET -28.1742 -1.7115 0.48768
            CHANNELS 3 Zrotation Xrotation Yrotation
            JOINT rHand
            {
              OFFSET -22.5879 0.773209 7.07136
              CHANNELS 3 Zrotation Xrotation Yrotation
              JOINT rThumb1
              {
                OFFSET -1.2192 -0.487915 3.41376
                CHANNELS 3 Zrotation Xrotation Yrotation
                JOINT rThumb2
                {
                  OFFSET -3.37035 -0.52449 3.41376
                  CHANNELS 3 Zrotation Xrotation Yrotation
                  End Site
                  {
                    OFFSET -1.78271 -1.18214 1.43049
                  }
                }
              }
              JOINT rIndex1
              {
                OFFSET -7.75947 0.938293 5.60832
                CHANNELS 3 Zrotation Xrotation Yrotation
                JOINT rIndex2
                {
                  OFFSET -2.54057 -0.884171 1.56538
                  CHANNELS 3 Zrotation Xrotation Yrotation
                  End Site
                  {
                    OFFSET -1.62519 -0.234802 1.16502
                  }
                }
              }
              JOINT rMid1
              {
                OFFSET -8.24714 1.18213 3.41376
                CHANNELS 3 Zrotation Xrotation Yrotation
                JOINT rMid2
                {
                  OFFSET -3.10165 -0.590103 1.0647
                  CHANNELS 3 Zrotation Xrotation Yrotation
                  End Site
                  {
                    OFFSET -2.48547 -0.328903 0.83742
                  }
                }
              }
              JOINT rRing1
              {
                OFFSET -8.82822 0.546677 1.51678
                CHANNELS 3 Zrotation Xrotation Yrotation
                JOINT rRing2
                {
                  OFFSET -2.60934 -0.819778 -0.0198488
                  CHANNELS 3 Zrotation Xrotation Yrotation
                  End Site
                  {
                    OFFSET -2.33842 -0.294052 0.168128
                  }
                }
              }
              JOINT rPinky1
              {
                OFFSET -8.27202 -0.0477905 -0.4584
                CHANNELS 3 Zrotation Xrotation Yrotation
                JOINT rPinky2
                {
                  OFFSET -1.82734 -0.647385 -0.700984
                  CHANNELS 3 Zrotation Xrotation Yrotation
                  End Site
                  {
                    OFFSET -1.69225 -0.51767 -0.607171
                  }
                }
              }
            }
          }
        }
      }
      JOINT lCollar
      {
        OFFSET 2.68224 19.2634 -4.8768
        CHANNELS 3 Zrotation Xrotation Yrotation
        JOINT lShldr
        {
          OFFSET 8.77824 -1.95073 1.46304
          CHANNELS 3 Zrotation Xrotation Yrotation
          JOINT lForeArm
          {
            OFFSET 28.1742 -1.7115 0.48768
            CHANNELS 3 Zrotation Xrotation Yrotation
            JOINT lHand
            {
              OFFSET 22.5879 0.773209 7.07136
              CHANNELS 3 Zrotation Xrotation Yrotation
              JOINT lThumb1
              {
                OFFSET 1.2192 -0.487915 3.41376
                CHANNELS 3 Zrotation Xrotation Yrotation
                JOINT lThumb2
                {
                  OFFSET 3.37035 -0.52449 3.41376
                  CHANNELS 3 Zrotation Xrotation Yrotation
                  End Site
                  {
                    OFFSET 1.78271 -1.18214 1.43049
                  }
                }
              }
              JOINT lIndex1
              {
                OFFSET 7.75947 0.938293 5.60832
                CHANNELS 3 Zrotation Xrotation Yrotation
                JOINT lIndex2
                {
                  OFFSET 2.54057 -0.884171 1.56538
                  CHANNELS 3 Zrotation Xrotation Yrotation
                  End Site
                  {
                    OFFSET 1.62519 -0.234802 1.16502
                  }
                }
              }
              JOINT lMid1
              {
                OFFSET 8.24714 1.18213 3.41376
                CHANNELS 3 Zrotation Xrotation Yrotation
                JOINT lMid2
                {
                  OFFSET 3.10165 -0.590103 1.0647
                  CHANNELS 3 Zrotation Xrotation Yrotation
                  End Site
                  {
                    OFFSET 2.48547 -0.328903 0.83742
                  }
                }
              }
              JOINT lRing1
              {
                OFFSET 8.82822 0.546677 1.51678
                CHANNELS 3 Zrotation Xrotation Yrotation
                JOINT lRing2
                {
                  OFFSET 2.60934 -0.819778 -0.0198488
                  CHANNELS 3 Zrotation Xrotation Yrotation
                  End Site
                  {
                    OFFSET 2.33842 -0.294052 0.168128
                  }
                }
              }
              JOINT lPinky1
              {
                OFFSET 8.27202 -0.0477905 -0.4584
                CHANNELS 3 Zrotation Xrotation Yrotation
                JOINT lPinky2
                {
                  OFFSET 1.82734 -0.647385 -0.700984
                  CHANNELS 3 Zrotation Xrotation Yrotation
                  End Site
                  {
                    OFFSET 1.69225 -0.51767 -0.607171
                  }
                }
              }
            }
          }
        }
      }
    }
  }
  JOINT rButtock
  {
    OFFSET -8.77824 4.35084 1.2192
    CHANNELS 3 Zrotation Xrotation Yrotation
    JOINT rThigh
    {
      OFFSET 0 -1.70687 -2.19456
      CHANNELS 3 Zrotation Xrotation Yrotation
      JOINT rShin
      {
        OFFSET 0 -36.8199 0.73152
        CHANNELS 3 Zrotation Xrotation Yrotation
        JOINT rFoot
        {
          OFFSET 0.73152 -45.1104 -5.12064
          CHANNELS 3 Zrotation Xrotation Yrotation
          End Site
          {
            OFFSET -1.1221 -3.69964 12.103
          }
        }
      }
    }
  }
  JOINT lButtock
  {
    OFFSET 8.77824 4.35084 1.2192
    CHANNELS 3 Zrotation Xrotation Yrotation
    JOINT lThigh
    {
      OFFSET 0 -1.70687 -2.19456
      CHANNELS 3 Zrotation Xrotation Yrotation
      JOINT lShin
      {
        OFFSET 0 -36.8199 0.73152
        CHANNELS 3 Zrotation Xrotation Yrotation
        JOINT lFoot
        {
          OFFSET -0.73152 -45.1104 -5.12064
          CHANNELS 3 Zrotation Xrotation Yrotation
          End Site
          {
            OFFSET 1.1221 -3.69964 12.103
          }
        }
      }
    }
  }
}
MOTION
Frames:	4
Frame Time:	0.03333
-1.9002670563506212 -0.4157278414867299 0.2405196154541513 -21.05751609802246 11.507362365722656 151.29917907714844 91.28328704833984 -36.984107971191406 23.07234764099121 169.32180786132812 14.398964881896973 -60.196529388427734 -153.4022979736328 -38.67627716064453 -66.06163787841797 -46.6334342956543 -18.0030460357666 -1.3698925971984863 -140.88699340820312 -57.201324462890625 43.81410598754883 172.48822021484375 23.974184036254883 -150.8537139892578 -142.91513061523438 0.49156010150909424 -14.079577445983887 148.7439422607422 19.918014526367188 -56.82993698120117 -131.30093383789062 29.709890365600586 -15.497882843017578 -175.80577087402344 -52.268646240234375 71.27800750732422 157.44981384277344 -12.158499717712402 121.5030746459961 -135.12501525878906 20.436031341552734 105.51825714111328 99.98745727539062 -18.58453941345215 132.53009033203125 -49.272151947021484 42.9572868347168 86.27883911132812 -6.752865791320801 14.479594230651855 -39.94782638549805 -173.52061462402344 27.00914192199707 -131.7751007080078 -170.64669799804688 -7.176580905914307 41.05287551879883 96.91903686523438 24.362537384033203 91.03693389892578 -85.97992706298828 -36.336849212646484 -95.13610076904297 -129.5716552734375 -4.900132179260254 64.89827728271484 42.887359619140625 1.0815017223358154 1.1044801473617554 37.24660110473633 13.34123706817627 -67.17678833007812 -13.243123054504395 -24.80586814880371 -156.38168334960938 54.137393951416016 -28.962921142578125 -33.87579345703125 -86.4572982788086 80.55792999267578 103.49347686767578 17.410608291625977 42.37187957763672 4.331699371337891 -112.76604461669922 6.462655544281006 55.65689468383789 55.233943939208984 -27.971092224121094 132.0037384033203 -73.87376403808594 -29.830812454223633 -119.6353988647461 31.06355857849121 -19.337804794311523 -32.554927825927734 -163.94032287597656 38.03335952758789 -120.38743591308594 27.737701416015625 46.17662048339844 17.329469680786133 43.51175308227539 24.552719116210938 152.804443359375 80.15306091308594 49.35171127319336 170.78271484375 81.95304870605469 -46.15479278564453 80.64337921142578 -33.05590057373047 14.68432331085205 -143.61781311035156 150.11448669433594 20.43570899963379 28.412799835205078 55.833072662353516 -18.632158279418945 115.17485046386719 -90.41593933105469 -46.13959503173828 54.93043518066406 115.75517272949219 -26.529712677001953 143.296630859375 103.02714538574219 -32.07046127319336 -28.659276962280273 95.63875579833984 -15.348793029785156 12.996816635131836
-3.870716013970416 -0.3920814597758813 0.438096070688287 -12.627779006958008 1.00300931930542 145.88340759277344 96.20346069335938 -37.2706184387207 15.740262031555176 167.86907958984375 18.522523880004883 -62.391754150390625 -156.89215087890625 -43.86078643798828 -61.22521209716797 -60.53681564331055 -19.744890213012695 5.359222888946533 -150.183837890625 -55.852684020996094 39.53022766113281 177.6799774169922 23.80751609802246 -161.478515625 -144.7508087158203 -1.961949348449707 -11.777718544006348 146.6173553466797 20.42755699157715 -57.531314849853516 -116.69893646240234 26.67416763305664 -12.200875282287598 -160.19728088378906 -48.24666976928711 77.68836212158203 159.19992065429688 -11.780598640441895 121.425048828125 -137.37387084960938 18.413209915161133 101.2425308227539 101.58815002441406 -15.068487167358398 130.2044677734375 -47.06326675415039 42.79917907714844 89.62289428710938 -6.052732944488525 14.121495246887207 -41.28354263305664 -175.0193634033203 22.97150993347168 -129.8699951171875 -167.44894409179688 -5.05406379699707 34.04585647583008 99.91959381103516 24.3701114654541 90.51791381835938 -94.30565643310547 -34.92751693725586 -96.21426391601562 -138.62472534179688 -9.39133071899414 67.62046813964844 43.389278411865234 7.846378326416016 -0.22715485095977783 37.94877243041992 12.812708854675293 -73.30103302001953 -10.042397499084473 -30.16437530517578 -163.90780639648438 50.77796173095703 -30.242033004760742 -30.497140884399414 -112.69541931152344 75.62085723876953 136.1662139892578 9.0249662399292 36.67435836791992 6.522495746612549 -115.68334197998047 8.620710372924805 56.605224609375 69.23306274414062 -27.667156219482422 127.63104248046875 -80.65322875976562 -25.668020248413086 -119.32610321044922 27.789857864379883 -19.474868774414062 -38.888694763183594 -155.29664611816406 33.8790168762207 -123.74736785888672 21.06145668029785 49.24851989746094 14.093286514282227 34.416839599609375 27.18059539794922 157.844482421875 71.34161376953125 49.80364227294922 179.18572998046875 79.99705505371094 -47.892921447753906 77.00244140625 -38.513031005859375 19.553110122680664 -147.83444213867188 156.1582794189453 24.922792434692383 28.305126190185547 53.773963928222656 -16.016281127929688 116.79874420166016 -92.51825714111328 -47.73258972167969 52.46262741088867 111.80583953857422 -17.504823684692383 138.2752685546875 105.49490356445312 -36.6363525390625 -29.15256118774414 111.4657974243164 -15.181732177734375 7.553397178649902
-5.87378702228325 -0.3980048346118691 0.6710783589499176 -10.181439399719238 -4.132297515869141 144.28268432617188 97.19342803955078 -38.79677200317383 11.041900634765625 167.03488159179688 21.19719123840332 -63.859779357910156 -157.81784057617188 -48.41604232788086 -59.66789245605469 -67.4706802368164 -21.783655166625977 10.989261627197266 -151.57289123535156 -57.01288986206055 37.74586486816406 -179.12054443359375 24.317903518676758 -168.05628967285156 -144.13137817382812 -2.1924939155578613 -10.461759567260742 143.64674377441406 20.825651168823242 -57.83549880981445 -107.68204498291016 24.680707931518555 -9.213438034057617 -150.25885009765625 -45.923709869384766 82.66845703125 157.79116821289062 -13.216575622558594 121.29789733886719 -138.55543518066406 17.717653274536133 99.39735412597656 101.93558502197266 -12.957727432250977 129.66506958007812 -44.79427719116211 42.28252410888672 90.16431427001953 -4.794788360595703 14.099037170410156 -42.72743606567383 -175.5509796142578 21.282148361206055 -129.08587646484375 -167.1405487060547 -3.6382699012756348 30.10638999938965 101.96493530273438 25.240007400512695 89.88531494140625 -96.76688385009766 -35.32704162597656 -97.98519134521484 -153.74386596679688 -14.114566802978516 70.65026092529297 44.28372573852539 9.727935791015625 -0.5473557710647583 40.40892791748047 11.227164268493652 -79.33942413330078 -14.635904312133789 -33.35845184326172 -169.0421142578125 49.77729034423828 -29.696147918701172 -28.143457412719727 -120.61442565917969 68.86082458496094 148.82814025878906 5.503536701202393 30.3436336517334 7.652093410491943 -120.15931701660156 8.937304496765137 59.7020263671875 76.34815979003906 -28.512157440185547 124.96018981933594 -84.19319915771484 -24.20361328125 -119.11320495605469 26.154682159423828 -19.78847885131836 -41.1180305480957 -151.2252197265625 31.44392204284668 -128.32020568847656 18.08433723449707 48.23646926879883 11.088909149169922 35.54160690307617 27.229278564453125 161.69207763671875 66.96509552001953 48.21391677856445 -175.21873474121094 79.67509460449219 -50.441410064697266 72.51715087890625 -43.71836471557617 23.12188720703125 -148.6763458251953 159.72250366210938 28.015050888061523 28.16094398498535 39.69144821166992 -12.617257118225098 117.81878662109375 -94.14838409423828 -49.53233337402344 53.738914489746094 105.29830169677734 -14.786748886108398 134.90884399414062 106.88423919677734 -38.968597412109375 -30.11886215209961 125.99681854248047 -15.592209815979004 3.034574508666992
-7.887915253088687 -0.42728820346124097 0.96670898322833 -11.750852584838867 -6.34151554107666 143.7881317138672 95.38961791992188 -40.894161224365234 8.838163375854492 166.14938354492188 23.339956283569336 -64.5423583984375 -159.7762908935547 -52.71569061279297 -61.35068130493164 -71.6121597290039 -24.035717010498047 15.8779296875 -151.93373107910156 -59.192787170410156 36.95329284667969 -177.00645446777344 24.984825134277344 -172.05038452148438 -143.62554931640625 -1.9435679912567139 -9.512235641479492 142.9752655029297 21.10941505432129 -57.83041000366211 -100.64727783203125 23.23713493347168 -7.250051498413086 -143.64988708496094 -44.52139663696289 86.28119659423828 156.43673706054688 -15.430574417114258 120.96271514892578 -138.898193359375 17.400611877441406 99.36837768554688 101.59852600097656 -11.797839164733887 129.6668701171875 -44.20716094970703 42.045196533203125 90.15336608886719 -2.905641555786133 14.165735244750977 -44.29924774169922 -175.5115509033203 19.33014678955078 -128.6736297607422 -167.97103881835938 -2.66796875 27.398330688476562 102.92900848388672 26.05450439453125 89.35619354248047 -97.51666259765625 -36.3228759765625 -100.2364501953125 -166.78366088867188 -17.957612991333008 73.38507843017578 45.2994384765625 8.624906539916992 -0.5604535341262817 42.91378402709961 9.22191047668457 -84.67210388183594 -20.938207626342773 -35.2131233215332 -172.52337646484375 49.011810302734375 -28.42855453491211 -26.877065658569336 -123.41200256347656 62.51477813720703 155.38052368164062 5.09024715423584 23.765296936035156 8.543691635131836 -124.97560119628906 8.559173583984375 64.08082580566406 78.32151794433594 -29.63817596435547 123.47784423828125 -85.19697570800781 -23.083980560302734 -118.33515167236328 24.088693618774414 -20.870731353759766 -41.71205520629883 -149.0789794921875 31.272968292236328 -133.2957305908203 15.728458404541016 45.29231262207031 8.995528221130371 39.96855926513672 26.265169143676758 164.1411895751953 65.76695251464844 46.150814056396484 -172.25914001464844 79.95979309082031 -52.73207473754883 68.1627197265625 -48.19984817504883 26.44027328491211 -148.43118286132812 162.02490234375 30.16672134399414 27.80557632446289 -9.497119903564453 -9.406766891479492 118.37054443359375 -92.00556182861328 -50.65005111694336 60.5450553894043 97.9648208618164 -13.00926399230957 132.05889892578125 107.17090606689453 -40.155521392822266 -31.497982025146484 137.9424591064453 -17.019466400146484 0.24648737907409668
